<?xml version="1.0" standalone="no"?>
<!DOCTYPE svg PUBLIC "-//W3C//DTD SVG 20010904//EN"
 "http://www.w3.org/TR/2001/REC-SVG-20010904/DTD/svg10.dtd">
<svg version="1.0" xmlns="http://www.w3.org/2000/svg"
 width="700.000000pt" height="700.000000pt" viewBox="0 0 700.000000 700.000000"
 preserveAspectRatio="xMidYMid meet">
<metadata>
Created by potrace 1.14, written by Peter Selinger 2001-2017
</metadata>
<g transform="translate(0.000000,700.000000) scale(0.100000,-0.100000)"
fill="#000000" stroke="none">
<path d="M99 6176 c-2 -2 -21 -7 -43 -10 -21 -4 -42 -9 -47 -12 -5 -3 -9 -41
-9 -85 l0 -80 28 15 c15 8 50 18 77 23 28 5 1553 9 3472 8 l3423 0 0 73 0 72
-3448 0 c-1897 0 -3451 -2 -3453 -4z"/>
<path d="M2440 5633 c-8 -4 -47 -21 -86 -39 -73 -33 -115 -40 -269 -45 -91 -3
-126 -13 -202 -56 -47 -28 -62 -43 -67 -65 -4 -19 -12 -28 -26 -29 -11 -1 -24
-3 -30 -4 -5 -1 -17 -3 -25 -4 -23 -2 -29 -27 -13 -61 13 -30 16 -32 108 -55
8 -2 32 -6 53 -9 78 -12 121 -45 206 -160 48 -63 81 -118 81 -132 0 -13 -8
-45 -19 -71 l-18 -48 47 -100 c63 -134 75 -140 167 -89 62 33 71 42 82 79 8
27 26 53 49 72 20 17 48 41 62 53 29 26 49 34 152 65 116 34 146 63 191 182
40 106 43 125 33 193 -4 34 0 61 17 110 20 54 30 68 60 84 34 18 36 21 23 40
-12 18 -25 21 -105 24 -50 1 -91 7 -91 11 0 5 -21 19 -47 31 -41 19 -68 23
-183 25 -74 2 -142 1 -150 -2z"/>
<path d="M1570 5612 c-123 -21 -316 -64 -324 -72 -6 -6 -16 -45 -21 -88 l-11
-77 31 -39 c66 -85 188 -106 297 -51 43 22 59 35 63 56 10 43 37 63 210 154
110 57 110 58 88 77 -18 16 -54 22 -193 33 -41 3 -84 7 -95 9 -11 1 -31 1 -45
-2z"/>
<path d="M3783 5435 c-12 -9 -11 -13 5 -28 36 -33 182 -22 182 14 0 22 -159
34 -187 14z"/>
<path d="M1010 5420 c-25 -10 -63 -21 -85 -24 -21 -4 -40 -8 -42 -10 -2 -2 29
-17 68 -35 l71 -32 69 23 c49 16 68 26 64 36 -3 7 -5 17 -5 21 0 9 -67 41 -83
40 -7 -1 -32 -9 -57 -19z"/>
<path d="M4859 5380 c-19 -10 -55 -21 -79 -25 -61 -9 -76 -19 -145 -93 -71
-76 -87 -104 -91 -154 -3 -39 -24 -76 -67 -116 -28 -27 -64 -26 -59 1 2 9 -2
18 -8 18 -38 5 -45 2 -48 -17 -2 -11 -18 -38 -37 -59 -30 -36 -38 -40 -87 -41
-43 -2 -58 2 -80 21 -15 13 -25 25 -23 27 2 2 32 1 67 -2 61 -6 78 -1 78 25
-1 6 -53 36 -118 68 l-117 59 -98 -3 c-90 -3 -99 -5 -121 -28 -26 -29 -41 -43
-203 -185 -74 -64 -113 -106 -114 -120 -1 -11 -3 -40 -5 -63 -4 -53 15 -72 48
-49 34 24 62 19 104 -19 22 -19 44 -35 51 -35 6 0 28 22 48 50 30 41 35 54 30
83 -6 28 1 46 47 120 57 92 75 108 95 81 10 -14 6 -29 -24 -88 -31 -61 -36
-82 -38 -148 -3 -87 -18 -116 -83 -154 -60 -35 -192 -24 -192 16 0 10 -5 22
-10 25 -15 9 -39 -13 -35 -33 3 -23 -13 -42 -37 -42 -10 0 -38 -17 -61 -39
-185 -171 -171 -155 -154 -182 17 -26 16 -74 -2 -92 -6 -6 -26 -10 -44 -9 -26
2 -40 -5 -67 -33 l-34 -35 32 -32 c25 -26 40 -32 74 -33 54 -1 89 20 128 74
57 78 130 89 220 31 71 -46 71 -76 -3 -123 -24 -15 -52 -18 -180 -19 -138 -1
-155 -3 -184 -22 -35 -24 -228 -274 -249 -322 -14 -34 -16 -204 -3 -242 5 -12
27 -46 49 -76 22 -29 40 -58 40 -64 0 -6 14 -21 32 -34 31 -21 41 -22 208 -23
l175 0 42 -30 c33 -23 43 -37 43 -58 0 -28 31 -96 69 -152 29 -42 28 -130 -1
-197 -19 -45 -20 -55 -9 -92 26 -89 31 -113 31 -168 0 -54 2 -58 42 -92 23
-20 45 -36 50 -36 4 0 8 -10 8 -22 0 -13 18 -41 42 -65 38 -39 47 -43 91 -43
83 0 119 28 204 160 l75 114 -6 66 -5 65 45 29 c71 45 98 88 95 149 -2 29 -7
58 -13 64 -6 8 -7 34 -4 65 6 51 11 57 110 158 86 87 107 115 125 163 11 32
21 59 21 60 0 1 -33 2 -72 1 -120 -2 -138 11 -235 178 -98 166 -109 222 -38
204 17 -4 43 -38 93 -124 84 -142 103 -178 96 -184 -14 -15 28 -13 81 2 33 10
86 25 117 34 47 14 63 24 91 61 34 44 34 45 23 96 -14 60 -38 82 -83 77 -18
-2 -33 -2 -33 2 0 3 -15 21 -33 40 -40 42 -56 70 -50 88 9 23 35 12 111 -47
89 -69 118 -82 187 -85 98 -5 113 -19 225 -211 97 -168 140 -220 157 -192 4 6
20 35 35 64 108 208 123 223 214 216 37 -3 62 -11 75 -24 10 -10 19 -21 19
-24 0 -3 0 -16 0 -30 0 -33 28 -45 46 -20 8 10 17 16 20 12 4 -3 8 -48 9 -99
1 -51 6 -102 10 -113 5 -11 40 -53 78 -93 l70 -73 -6 50 c-5 40 -15 62 -51
106 -35 42 -46 64 -46 90 0 19 5 37 11 40 16 10 87 -68 92 -101 2 -15 8 -29
14 -31 5 -2 35 25 66 61 73 82 75 111 17 175 -22 24 -40 49 -40 56 0 23 31 39
71 36 64 -3 134 36 214 118 39 40 70 78 69 84 -1 23 -16 92 -26 124 -8 28 -6
37 11 59 26 33 27 56 4 53 -10 -1 -38 -1 -63 0 l-45 1 52 35 c51 34 78 43 85
27 2 -4 18 -18 36 -31 30 -21 32 -25 32 -87 0 -35 4 -64 8 -64 13 0 78 63 85
83 5 12 -1 25 -17 40 l-24 23 33 37 c18 20 57 49 86 64 46 25 60 40 117 131
91 146 93 205 8 207 -27 1 -31 4 -34 32 -3 28 3 34 81 87 l85 56 98 3 c95 3
101 5 162 43 l62 39 -2 170 -3 169 -35 7 c-19 4 -54 10 -78 13 -45 6 -76 19
-105 44 -9 8 -20 13 -23 10 -3 -3 -33 0 -66 8 -65 15 -337 73 -378 80 -14 2
-43 8 -65 14 -22 5 -96 21 -165 35 -117 24 -214 45 -302 64 -31 7 -69 -1 -235
-51 -118 -36 -204 -67 -213 -78 -10 -11 -35 -20 -70 -23 -30 -4 -73 -9 -95
-12 -53 -7 -122 -13 -166 -14 -26 -1 -46 -10 -68 -30 -25 -24 -45 -31 -103
-39 -40 -5 -93 -8 -118 -8 -43 1 -45 3 -48 31 -3 27 5 37 65 85 90 72 83 67
126 74 21 3 47 11 58 16 18 10 18 13 4 40 -9 17 -17 30 -18 30 -1 -1 -18 -9
-38 -20z m-311 -1104 c18 -6 23 -13 19 -29 -3 -12 -8 -33 -11 -47 -5 -20 1
-31 27 -54 l32 -28 -22 -15 c-18 -12 -21 -19 -12 -34 15 -29 7 -53 -21 -59
-62 -14 -96 19 -76 73 10 26 8 31 -21 58 -28 24 -33 36 -33 73 0 41 2 45 30
51 16 4 32 10 35 15 6 9 17 8 53 -4z m-320 -4 c7 -5 15 -22 18 -38 5 -27 12
-36 59 -70 16 -11 18 -18 9 -32 -17 -26 -69 -27 -105 -1 -40 28 -71 27 -113
-5 -92 -69 -149 16 -70 104 42 46 49 48 73 19 17 -21 18 -21 44 -4 15 9 27 21
27 26 0 11 41 11 58 1z m-252 -254 l24 -48 85 0 c46 0 86 -4 89 -9 10 -15 -17
-56 -54 -82 -44 -32 -75 -31 -190 6 -47 15 -89 28 -95 29 -5 1 -36 11 -67 21
-70 23 -84 52 -44 94 39 41 94 41 129 1 33 -37 57 -39 57 -6 0 14 -5 28 -10
31 -7 4 -6 13 1 26 10 20 11 20 31 2 11 -10 31 -39 44 -65z"/>
<path d="M3560 5356 c-26 -12 -25 -12 34 -83 41 -50 52 -59 76 -55 19 3 32 14
43 37 l16 34 48 -23 c73 -36 82 -20 16 31 -32 25 -66 49 -76 55 -24 13 -131
16 -157 4z"/>
<path d="M786 5305 c-16 -13 -24 -25 -20 -27 8 -5 52 -18 80 -23 6 -2 31 -15
55 -31 27 -17 62 -29 93 -32 l48 -4 -7 33 c-4 19 -8 34 -9 35 -97 54 -121 64
-164 67 -39 3 -54 -1 -76 -18z"/>
<path d="M1182 5298 c-24 -24 -14 -41 20 -34 42 8 47 15 24 32 -24 17 -29 17
-44 2z"/>
<path d="M1078 5252 c-31 -6 -20 -52 14 -65 18 -6 62 38 53 53 -6 10 -45 17
-67 12z"/>
<path d="M1220 5235 c0 -8 6 -15 14 -15 7 0 16 -9 19 -20 3 -12 14 -20 25 -20
12 0 24 -5 27 -10 6 -10 220 -8 230 2 2 2 2 13 -1 25 -5 19 -12 21 -124 19
-103 -1 -120 1 -129 17 -14 21 -61 23 -61 2z"/>
<path d="M545 5172 c-11 -3 -34 -16 -52 -29 -30 -23 -33 -29 -27 -62 9 -48 47
-89 80 -85 32 3 39 10 39 37 0 35 31 31 60 -8 15 -19 48 -50 74 -67 45 -32 49
-33 169 -36 129 -3 125 -5 125 43 0 30 -4 34 -40 45 -21 7 -59 25 -84 41 -25
16 -52 29 -60 29 -8 0 -49 20 -90 44 -75 44 -136 59 -194 48z"/>
<path d="M1132 5160 l-42 -5 26 -40 c29 -43 45 -56 82 -67 18 -5 32 1 60 27
37 34 37 34 20 62 -14 24 -23 28 -60 28 -24 1 -62 -2 -86 -5z"/>
<path d="M930 5137 c-45 -22 -45 -22 -15 -25 53 -5 75 -22 75 -59 0 -33 0 -33
50 -33 48 0 50 1 50 28 0 47 -10 66 -45 90 -42 27 -58 27 -115 -1z"/>
<path d="M1394 5132 c-26 -4 -104 -69 -104 -85 1 -22 39 -58 67 -63 37 -7 38
-9 26 -54 -9 -36 -8 -41 17 -65 28 -27 62 -33 77 -12 6 6 11 29 11 50 2 50 7
57 45 57 23 -1 45 -12 76 -41 l44 -39 -13 -41 c-8 -23 -19 -42 -24 -44 -43
-12 -49 -16 -38 -27 6 -6 25 -12 42 -14 34 -4 85 -31 133 -71 25 -20 31 -21
60 -10 44 18 57 69 28 108 -12 16 -21 31 -21 34 0 12 29 4 50 -15 22 -19 24
-19 42 -4 10 10 18 24 18 33 0 13 -319 255 -387 295 -16 9 -113 15 -149 8z"/>
<path d="M340 4970 c-14 -4 -40 -14 -57 -23 -37 -19 -88 -21 -153 -6 -43 10
-54 13 -108 23 l-22 5 0 -183 0 -183 28 -2 c15 -1 38 -3 52 -6 14 -2 30 -4 37
-4 6 -1 67 -52 135 -114 68 -62 135 -124 150 -136 42 -37 66 -112 72 -228 3
-68 10 -112 22 -134 9 -18 70 -99 134 -179 166 -204 188 -227 198 -213 5 9 37
-17 102 -83 112 -113 215 -173 310 -181 81 -6 100 -12 100 -29 0 -8 23 -40 51
-70 52 -54 52 -54 113 -54 71 -1 96 -15 96 -57 0 -22 -12 -42 -50 -79 -50 -49
-50 -49 -50 -114 l0 -65 54 -53 c48 -48 53 -56 52 -93 -2 -41 13 -66 60 -99
12 -8 31 -35 43 -59 20 -39 22 -53 17 -130 -4 -53 -21 -138 -43 -217 -29 -104
-36 -145 -34 -209 0 -44 -5 -111 -13 -149 -9 -40 -11 -77 -7 -90 5 -11 9 -24
9 -29 2 -51 18 -90 44 -112 52 -44 64 -33 118 96 30 73 83 172 143 266 62 98
97 162 99 184 3 31 6 34 38 37 56 5 207 161 193 199 -9 24 17 52 55 59 26 4
49 19 80 51 38 42 42 50 42 98 0 72 22 127 65 167 27 24 38 44 42 74 5 37 2
43 -23 61 -66 46 -214 115 -254 117 -35 2 -50 12 -98 57 -31 30 -58 57 -60 62
-2 4 -8 5 -13 2 -12 -8 -82 29 -116 61 -41 39 -100 62 -165 65 -31 1 -67 8
-80 15 -20 11 -30 8 -84 -22 -51 -28 -73 -35 -130 -37 l-68 -2 -23 40 c-14 23
-22 51 -20 67 4 30 -8 38 -53 38 -35 0 -44 21 -27 63 33 86 -11 129 -70 68
-28 -29 -99 -71 -118 -70 -5 0 -21 14 -35 31 -21 27 -24 42 -25 112 -1 45 2
88 6 97 4 8 31 28 60 43 l52 27 26 -24 c30 -27 66 -28 85 -2 18 25 46 13 100
-45 49 -53 85 -65 87 -30 1 11 2 23 3 28 1 4 6 31 10 61 8 52 15 63 69 108 15
13 28 30 28 38 1 8 3 20 4 25 1 6 3 21 4 33 1 28 15 44 102 120 67 58 85 65
119 47 14 -7 33 -5 72 11 53 21 68 33 68 58 0 9 -6 11 -17 6 -58 -23 -80 -16
-87 27 -4 31 -19 40 -57 35 -32 -4 -37 -2 -30 11 9 16 14 18 91 27 137 18 200
43 194 79 -1 10 -25 42 -52 70 -28 28 -72 75 -100 105 l-50 54 -41 -17 -42
-16 -91 60 c-50 33 -94 60 -98 60 -4 0 -16 -10 -27 -22 -30 -32 -36 -111 -11
-137 41 -44 6 -75 -92 -83 -29 -2 -137 66 -144 91 -3 9 -14 50 -25 91 l-21 74
28 30 c15 16 33 36 40 44 26 29 4 94 -54 153 l-46 47 -47 -16 c-25 -8 -63 -30
-83 -47 l-38 -32 -157 2 -158 2 -103 52 c-102 51 -105 52 -205 55 -56 2 -113
0 -127 -4z"/>
<path d="M2641 4851 l-22 -17 48 -34 c43 -31 55 -35 113 -35 64 0 64 0 67 29
4 51 -9 61 -79 62 -35 1 -72 4 -84 7 -11 3 -30 -2 -43 -12z"/>
<path d="M3293 4747 c-26 -18 -32 -28 -31 -60 0 -42 -34 -90 -58 -80 -15 6
-28 -32 -22 -68 5 -40 82 -38 85 2 2 27 30 69 46 69 16 0 37 -20 37 -36 0 -7
-8 -15 -19 -19 -21 -6 -37 -75 -20 -86 12 -7 86 5 96 15 4 4 6 28 4 54 -2 37
-8 53 -32 75 -31 30 -36 56 -18 85 9 15 8 24 -6 45 -21 32 -21 32 -62 4z"/>
<path d="M6965 4615 c-41 -51 -54 -82 -55 -133 0 -53 14 -82 40 -82 38 0 51
39 48 150 l-3 102 -30 -37z"/>
<path d="M6598 4178 c-12 -24 -34 -69 -49 -100 -24 -49 -35 -61 -81 -84 -92
-46 -118 -70 -118 -110 0 -28 4 -35 17 -32 9 2 17 11 19 21 3 23 -3 19 67 44
57 21 57 21 82 1 14 -11 31 -18 39 -15 16 6 63 160 65 218 1 10 13 20 28 24
41 10 60 45 24 45 -10 0 -24 7 -31 15 -21 25 -38 17 -62 -27z"/>
<path d="M1483 3552 c-13 -2 -23 -10 -23 -18 0 -15 42 -29 64 -21 8 3 35 -8
60 -24 48 -30 106 -38 136 -19 8 5 10 10 4 10 -7 0 -35 16 -64 36 -51 35 -106
46 -177 36z"/>
<path d="M1767 3455 c-25 -18 -21 -24 16 -21 35 2 57 12 57 26 0 13 -54 9 -73
-5z"/>
<path d="M5552 3240 c-5 -14 -7 -30 -3 -36 3 -7 56 -65 117 -131 111 -118 112
-118 188 -141 56 -16 101 -22 176 -22 l100 0 0 25 c0 14 -3 25 -7 26 -5 0 -15
2 -23 3 -8 2 -60 9 -115 16 -176 21 -166 16 -302 158 -118 123 -122 126 -131
102z"/>
<path d="M5971 3210 c-33 -28 -69 -50 -80 -50 -11 0 -25 -9 -31 -21 -9 -17 -7
-26 15 -55 36 -48 54 -55 104 -42 39 10 45 16 71 72 26 55 28 66 18 98 -6 21
-17 39 -24 42 -8 3 -41 -17 -73 -44z"/>
<path d="M6372 3111 c-8 -4 -12 -19 -10 -32 1 -13 5 -22 8 -19 3 3 18 -5 34
-17 16 -13 41 -23 56 -23 42 0 70 -31 70 -77 l0 -40 43 2 c23 1 61 10 85 20
l42 17 30 -33 c53 -62 102 -39 59 27 -18 27 -51 49 -139 94 -104 52 -118 57
-135 44 -31 -23 -69 -12 -73 19 -3 22 -8 27 -30 27 -15 0 -33 -4 -40 -9z"/>
<path d="M6370 2840 c-62 -6 -88 -22 -189 -113 -36 -32 -81 -65 -101 -73 -26
-10 -46 -32 -77 -80 l-42 -66 31 -88 c29 -84 34 -91 72 -108 37 -18 43 -18 75
-4 45 19 139 42 154 37 7 -2 41 -6 77 -10 55 -5 74 -12 120 -46 85 -61 160
-97 200 -94 116 7 219 118 220 236 0 84 -24 131 -108 209 -44 41 -92 98 -112
133 -39 67 -79 87 -71 35 0 -4 -31 -26 -71 -49 -67 -39 -72 -41 -84 -24 -11
15 -10 24 11 60 14 23 25 45 25 48 0 7 -31 6 -130 -3z"/>
<path d="M4372 2736 c-6 -13 -12 -63 -13 -112 -2 -85 -1 -88 26 -107 28 -21
28 -21 64 -1 l36 19 0 84 0 84 -51 28 -51 29 -11 -24z"/>
<path d="M6650 2114 c0 -19 32 -74 42 -74 11 0 88 65 88 74 0 2 -29 4 -65 4
-36 0 -65 -2 -65 -4z"/>
<path d="M2 1289 c3 -93 0 -89 100 -103 30 -4 5786 -9 6861 -6 l37 0 0 75 0
75 -3435 0 c-1889 0 -3438 1 -3442 1 -12 2 -86 26 -106 34 -16 7 -18 1 -15
-76z"/>
</g>
</svg>
